<svg width="20" height="20" viewBox="0 0 20 20" fill="none" xmlns="http://www.w3.org/2000/svg">
<path d="M8.3335 10.8334C8.69137 11.3118 9.14796 11.7077 9.67229 11.9941C10.1966 12.2806 10.7764 12.451 11.3724 12.4936C11.9683 12.5363 12.5665 12.4503 13.1263 12.2415C13.6861 12.0327 14.1944 11.7059 14.6168 11.2834L17.1168 8.78336C17.8758 7.99752 18.2958 6.94501 18.2863 5.85252C18.2768 4.76004 17.8386 3.71498 17.0661 2.94245C16.2935 2.16992 15.2485 1.73171 14.156 1.72222C13.0635 1.71273 12.011 2.1327 11.2252 2.89169L9.79183 4.31669" stroke="#F6F4EB" stroke-width="1.25" stroke-linecap="round" stroke-linejoin="round"/>
<path d="M11.6668 9.16665C11.309 8.68821 10.8524 8.29233 10.328 8.00587C9.80371 7.7194 9.22391 7.54905 8.62796 7.50637C8.03201 7.46369 7.43384 7.54968 6.87405 7.7585C6.31425 7.96732 5.8059 8.29409 5.3835 8.71665L2.8835 11.2167C2.12451 12.0025 1.70453 13.055 1.71402 14.1475C1.72352 15.24 2.16172 16.285 2.93426 17.0576C3.70679 17.8301 4.75184 18.2683 5.84433 18.2778C6.93681 18.2873 7.98932 17.8673 8.77517 17.1083L10.2002 15.6833" stroke="#F6F4EB" stroke-width="1.25" stroke-linecap="round" stroke-linejoin="round"/>
</svg>
