<svg width="16" height="16" viewBox="0 0 16 16" fill="none" xmlns="http://www.w3.org/2000/svg">
<path fill-rule="evenodd" clip-rule="evenodd" d="M1.05766 6.75737C4.79767 5.05827 7.28746 3.92928 8.53768 3.38155C12.096 1.82779 12.8441 1.55952 13.3249 1.54834C13.4318 1.54834 13.6668 1.5707 13.8271 1.70484C13.9553 1.81661 13.9874 1.96193 14.0087 2.07371C14.0302 2.1855 14.0515 2.42024 14.0302 2.59909C13.8378 4.72293 13.0043 9.87603 12.5769 12.2458C12.3952 13.2519 12.0426 13.5872 11.7007 13.6208C10.9526 13.6878 10.3863 13.1065 9.67038 12.6147C8.53768 11.8434 7.90723 11.3627 6.80658 10.6026C5.535 9.73074 6.35781 9.25007 7.08441 8.46762C7.27678 8.26638 10.5573 5.13652 10.6214 4.85707C10.6321 4.82353 10.6321 4.6894 10.5573 4.62233C10.4825 4.55526 10.3756 4.57761 10.2901 4.59997C10.1726 4.62233 8.37737 5.87428 4.88316 8.34462C4.37024 8.7135 3.91075 8.89239 3.49401 8.88119C3.03452 8.87004 2.15829 8.61291 1.49578 8.38937C0.694346 8.12109 0.0532005 7.97575 0.106629 7.50628C0.138686 7.26039 0.459259 7.01446 1.05766 6.75737Z" fill="#F6F4EB"/>
</svg>
