<svg width="16" height="16" viewBox="0 0 16 16" fill="none" xmlns="http://www.w3.org/2000/svg">
<mask id="mask0_302_521" style="mask-type:luminance" maskUnits="userSpaceOnUse" x="0" y="2" width="16" height="11">
<path d="M15.3803 2.58064H0.928711V12.9032H15.3803V2.58064Z" fill="white"/>
</mask>
<g mask="url(#mask0_302_521)">
<path d="M15.0782 4.19264C14.9117 3.55779 14.4227 3.0589 13.8005 2.88896C12.674 2.58064 8.15452 2.58064 8.15452 2.58064C8.15452 2.58064 3.63513 2.58064 2.50854 2.88896C1.88637 3.0589 1.39743 3.55779 1.23088 4.19264C0.928711 5.34214 0.928711 7.74193 0.928711 7.74193C0.928711 7.74193 0.928711 10.1417 1.23088 11.2912C1.39743 11.9261 1.88637 12.425 2.50854 12.5949C3.63513 12.9032 8.15452 12.9032 8.15452 12.9032C8.15452 12.9032 12.674 12.9032 13.8005 12.5949C14.4227 12.425 14.9117 11.9261 15.0782 11.2912C15.3804 10.1417 15.3804 7.74193 15.3804 7.74193C15.3804 7.74193 15.3792 5.34214 15.0782 4.19264Z" fill="#F6F4EB"/>
<path d="M6.70801 9.95375L10.4625 7.74214L6.70801 5.53047V9.95375Z" fill="#00000A"/>
</g>
</svg>
